<svg width="126" height="116" viewBox="0 0 126 116" fill="none" xmlns="http://www.w3.org/2000/svg">
<path d="M73.5045 33.8334C73.5045 36.5028 75.854 38.6667 78.7523 38.6667C81.6505 38.6667 84 36.5028 84 33.8334V29C84 18.3225 74.602 9.66672 63.0091 9.66672H31.5273C19.9344 9.66672 10.5364 18.3225 10.5364 29V87C10.5364 97.6775 19.9344 106.333 31.5273 106.333H63.0455C74.6385 106.333 84.0364 97.6775 84.0364 87V82.1667C84.0364 79.4973 81.6869 77.3334 78.7887 77.3334C75.8905 77.3334 73.541 79.4973 73.541 82.1667V87C73.541 92.3388 68.842 96.6667 63.0455 96.6667H31.5273C25.7308 96.6667 21.0319 92.3388 21.0319 87L21.0319 29C21.0319 23.6613 25.7308 19.3334 31.5273 19.3334H63.0091C68.8056 19.3334 73.5045 23.6613 73.5045 29V33.8334Z" fill="#F14141"/>
<rect x="105" y="53.1666" width="9.66666" height="63" rx="1" transform="rotate(90 105 53.1666)" fill="#F14141"/>
<path d="M90.7877 46.9177C88.7374 45.0302 88.7374 41.9699 90.7877 40.0824C92.8379 38.1948 96.162 38.1948 98.2123 40.0824L113.962 54.5824C116.013 56.4699 116.013 59.5302 113.962 61.4177L98.2123 75.9177C96.162 77.8053 92.8379 77.8053 90.7877 75.9177C88.7374 74.0302 88.7374 70.9699 90.7877 69.0824L102.825 58L90.7877 46.9177Z" fill="#F14141"/>
</svg>
