<svg width="84" height="78" viewBox="0 0 84 78" fill="#fff" xmlns="http://www.w3.org/2000/svg">
<path d="M42.0031 34.7499C31.8778 34.7499 23.6695 27.1388 23.6695 17.75C23.6695 8.36116 31.8778 0.75 42.0031 0.75C52.1279 0.75 60.3361 8.36116 60.3361 17.75C60.3361 27.1388 52.1279 34.7499 42.0031 34.7499Z" fill="#fff"/>
<path d="M0.752986 73.844C2.52953 53.5599 20.2838 43.2473 41.9234 43.2473C63.868 43.2473 81.8974 52.9936 83.2403 73.8473C83.294 74.678 83.2403 77.2471 79.7973 77.2471C62.8133 77.2471 37.5758 77.2471 4.08436 77.2471C2.93495 77.2471 0.65623 74.9489 0.752986 73.844Z" fill="#fff"/>
</svg>
